# xmcd
#
# Track frame offsets:
#   182
#   9267
#   21615
#   38720
#   51430
#   64455
#   73075
#   85382
#   103427
#   115575
#   128742
#   138520
#   153812
#   168337
#
# Disc length: 2414 seconds
#
# Revision: 0
# Processed by: cddbd v1.5.1PL0 Copyright (c) Steve Scherf et al.
# Submitted via: uFREEDB 1.6.0
#
DISCID=c4096c0e
DTITLE=Rich O'Brien - Seasons, Roads, And Faces
DYEAR=1997
DGENRE=Country
TTITLE0=Big Sky Bounce
TTITLE1=There's An Old Spinning Wheel
TTITLE2=Waltz for Bridget
TTITLE3=Swing 42
TTITLE4=I'll Be With You In Apple Blossom Time
TTITLE5=Dancing Mick From Louisville
TTITLE6=Limehouse Blues
TTITLE7=Santa Rosa Serenade
TTITLE8=The Gypsy's Djewelry
TTITLE9=On The Trail
TTITLE10=Come And Dine (The Master Calleth)
TTITLE11=October's Message
TTITLE12=Fling Of The Tinks
TTITLE13=When You And I Were Young Maggie
EXTD=
EXTT0=
EXTT1=
EXTT2=
EXTT3=
EXTT4=
EXTT5=
EXTT6=
EXTT7=
EXTT8=
EXTT9=
EXTT10=
EXTT11=
EXTT12=
EXTT13=
PLAYORDER=
